<svg width="47" height="46" viewBox="0 0 47 46" fill="none" xmlns="http://www.w3.org/2000/svg">
<g clip-path="url(#clip0_904_19661)">
<path fill-rule="evenodd" clip-rule="evenodd" d="M23.4997 39.2918C32.4973 39.2918 39.7913 31.9978 39.7913 23.0002C39.7913 14.0025 32.4973 6.7085 23.4997 6.7085C14.502 6.7085 7.20801 14.0025 7.20801 23.0002C7.20801 31.9978 14.502 39.2918 23.4997 39.2918ZM23.4997 42.1668C34.0851 42.1668 42.6663 33.5856 42.6663 23.0002C42.6663 12.4147 34.0851 3.8335 23.4997 3.8335C12.9142 3.8335 4.33301 12.4147 4.33301 23.0002C4.33301 33.5856 12.9142 42.1668 23.4997 42.1668Z" fill="url(#paint0_radial_904_19661)"/>
<path fill-rule="evenodd" clip-rule="evenodd" d="M26.7626 30.4751C27.5558 29.7784 28.2913 28.5754 28.2913 26.418C28.2913 26.1084 28.174 25.4588 27.7904 24.4297C27.426 23.4525 26.8977 22.3306 26.2676 21.1484C25.4193 19.5567 24.4342 17.944 23.53 16.5576C22.6207 17.9399 21.6242 19.5331 20.7624 21.1142C20.1245 22.2846 19.5891 23.3967 19.2195 24.3746C18.8329 25.3975 18.708 26.0677 18.708 26.418C18.708 28.5754 19.4435 29.7784 20.2367 30.4751C21.1005 31.2338 22.3051 31.6249 23.4997 31.6249C24.6943 31.6249 25.8989 31.2338 26.7626 30.4751ZM31.1663 26.418C31.1663 32.2211 27.0383 34.4999 23.4997 34.4999C19.9611 34.4999 15.833 32.2211 15.833 26.418C15.833 22.966 20.0628 16.4932 22.3839 13.1112C22.934 12.3096 24.0978 12.2871 24.6546 13.0841C27.0393 16.4973 31.1663 23.1252 31.1663 26.418Z" fill="url(#paint1_radial_904_19661)"/>
</g>
<defs>
<radialGradient id="paint0_radial_904_19661" cx="0" cy="0" r="1" gradientUnits="userSpaceOnUse" gradientTransform="translate(23.5111 23.8997) rotate(40.1482) scale(22.6707 906828)">
<stop stop-color="#0AB8DF"/>
<stop offset="0.745" stop-color="#D867EA"/>
<stop offset="0.87" stop-color="#FDED5D"/>
<stop offset="1" stop-color="#00295F"/>
</radialGradient>
<radialGradient id="paint1_radial_904_19661" cx="0" cy="0" r="1" gradientUnits="userSpaceOnUse" gradientTransform="translate(24.2209 5.92584) rotate(90.8971) scale(45.3241 1.26347e+06)">
<stop stop-color="#132236"/>
<stop offset="0.41" stop-color="#F3ABFF"/>
<stop offset="0.622104" stop-color="#69EBFF"/>
<stop offset="0.845" stop-color="#132236"/>
</radialGradient>
<clipPath id="clip0_904_19661">
<rect width="46" height="46" fill="white" transform="translate(0.5)"/>
</clipPath>
</defs>
</svg>
